<?xml version="1.0" standalone="no"?>
<!DOCTYPE svg PUBLIC "-//W3C//DTD SVG 20010904//EN"
 "http://www.w3.org/TR/2001/REC-SVG-20010904/DTD/svg10.dtd">
<svg version="1.0" xmlns="http://www.w3.org/2000/svg"
 width="260.000000pt" height="260.000000pt" viewBox="0 0 260.000000 260.000000"
 preserveAspectRatio="xMidYMid meet">
<metadata>
Created by potrace 1.14, written by Peter Selinger 2001-2017
</metadata>
<g transform="translate(0.000000,260.000000) scale(0.100000,-0.100000)"
fill="#000000" stroke="none">
<path d="M1230 2572 c-36 -16 -92 -45 -125 -65 -70 -43 -76 -44 -101 -16 -31
34 -109 69 -155 69 -50 0 -141 -23 -226 -57 -54 -22 -66 -23 -80 -12 -14 12
-15 11 -8 -10 5 -16 4 -21 -4 -17 -6 4 -11 3 -11 -1 0 -5 -21 -19 -47 -32
l-48 -23 61 -57 c64 -59 159 -112 236 -132 45 -12 46 -13 41 -48 -3 -20 -15
-45 -28 -56 -13 -11 -33 -43 -45 -72 -16 -39 -26 -50 -38 -47 -15 5 -15 4 -2
-8 8 -7 14 -25 12 -39 -2 -19 11 -44 52 -94 50 -60 55 -71 51 -104 -16 -130
-16 -151 2 -152 13 0 12 -3 -6 -10 -19 -7 -22 -14 -17 -34 7 -28 -17 -75 -29
-56 -9 15 -77 14 -98 -1 -22 -17 -23 -47 -7 -213 11 -104 16 -130 20 -103 4
20 1 72 -6 115 -17 100 -17 176 -2 191 14 14 84 16 93 2 3 -5 -1 -23 -10 -40
l-15 -30 -21 21 c-25 25 -39 17 -16 -9 20 -22 21 -45 5 -75 -12 -23 -14 -236
-3 -289 5 -23 3 -28 -12 -29 -15 0 -15 -1 3 -9 25 -10 38 -37 21 -44 -7 -2 -5
-5 4 -5 9 -1 20 -12 23 -26 3 -13 31 -51 62 -84 67 -73 160 -123 274 -147 l78
-17 -29 -29 c-16 -16 -29 -34 -29 -39 0 -4 -22 -31 -48 -59 -26 -27 -61 -73
-77 -100 -21 -34 -40 -53 -62 -60 -50 -17 -107 -64 -155 -127 -63 -82 -78
-115 -78 -173 0 -28 -7 -64 -15 -80 -9 -17 -11 -30 -5 -30 5 0 10 6 10 13 0 8
3 9 8 1 4 -6 33 -14 65 -17 58 -6 59 -5 41 14 -21 23 -7 25 25 3 20 -15 68
-16 449 -13 235 2 511 2 614 0 l186 -3 51 27 c28 16 51 31 51 35 0 3 -13 27
-29 52 -16 25 -32 56 -36 69 -22 74 -131 170 -258 229 l-65 31 -4 70 c-4 71
-4 71 -53 114 -47 42 -108 70 -165 77 -16 2 4 11 58 25 177 48 247 101 312
237 46 96 56 135 64 240 4 43 11 86 16 96 7 13 4 25 -10 43 -24 31 -25 55 -3
86 12 18 13 23 2 19 -8 -3 -27 -22 -42 -44 -27 -38 -27 -41 -14 -80 36 -102
26 -247 -24 -350 -37 -78 -179 -198 -210 -178 -7 4 -9 3 -5 -4 8 -13 -29 -26
-45 -16 -7 4 -9 3 -6 -3 8 -12 -50 -28 -158 -43 -168 -23 -430 -2 -529 43 -70
32 -151 107 -183 170 -69 137 -69 322 -1 496 20 51 22 52 34 30 8 -15 9 -31 3
-47 -8 -20 -6 -23 9 -18 13 5 22 -1 30 -18 9 -20 7 -27 -9 -42 -20 -18 -27 -6
-7 14 7 7 9 12 6 12 -4 0 -17 -15 -29 -32 -16 -22 -17 -28 -6 -19 23 18 21 11
-7 -39 -13 -23 -26 -36 -28 -30 -5 17 -11 -48 -12 -130 0 -39 6 -82 16 -106 9
-23 14 -44 11 -48 -4 -3 -1 -6 6 -6 7 0 10 -4 7 -9 -3 -5 1 -12 10 -15 9 -3
12 -11 8 -18 -4 -7 -3 -10 1 -5 10 9 77 -52 69 -64 -2 -4 1 -11 7 -15 8 -5 9
-3 4 6 -4 7 -4 11 1 8 134 -65 193 -82 334 -98 154 -18 320 4 422 56 72 36
163 126 195 192 20 40 28 75 31 133 5 94 -12 152 -65 210 -30 33 -33 40 -21
58 15 24 21 25 49 11 24 -14 26 8 4 51 -21 39 -11 99 15 99 13 0 20 -9 23 -27
2 -16 5 15 6 68 1 89 3 97 27 120 44 40 55 81 53 185 -1 52 0 96 3 99 10 10
78 -28 79 -44 0 -11 2 -12 6 -3 8 19 26 14 18 -5 -5 -14 -3 -15 6 -6 8 9 21 8
51 -3 56 -20 75 -18 82 9 13 50 17 207 7 285 -16 122 -30 146 -115 189 -39 20
-78 38 -86 40 -32 8 -167 4 -198 -6 -30 -9 -37 -7 -78 24 -24 19 -71 44 -104
56 -33 12 -60 25 -60 28 0 4 -12 7 -27 7 -16 1 -68 4 -118 8 -85 6 -94 5 -155
-22z m238 2 c13 -4 22 -14 22 -25 0 -11 7 -19 15 -19 8 0 15 7 15 16 0 11 6
14 23 9 43 -13 144 -65 162 -85 17 -19 17 -21 -24 -65 -22 -24 -41 -51 -41
-59 0 -8 11 -28 25 -44 14 -17 25 -37 25 -45 0 -9 5 -19 10 -22 6 -3 10 -22
10 -41 0 -42 22 -54 60 -32 26 15 27 14 45 -18 10 -18 35 -50 56 -71 33 -33
52 -73 33 -73 -3 0 -26 18 -51 40 -30 26 -68 47 -109 60 -35 10 -78 27 -96 36
-29 15 -31 15 -20 1 8 -9 48 -27 90 -42 42 -14 88 -35 102 -46 16 -14 19 -19
8 -15 -32 10 -126 17 -98 7 14 -5 35 -9 48 -10 37 -2 113 -43 125 -68 5 -13 8
-25 6 -27 -2 -3 -29 4 -59 14 -30 11 -64 19 -75 19 -11 -1 5 -9 35 -18 91 -29
100 -36 100 -81 0 -22 -2 -40 -4 -40 -2 0 -24 12 -50 26 -59 33 -60 26 -1 -12
49 -31 53 -39 29 -72 -18 -26 -34 -29 -34 -6 0 8 -26 41 -57 73 -49 48 -69 61
-131 80 -78 24 -233 58 -292 63 -19 1 -38 7 -42 13 -5 6 -8 6 -8 0 0 -6 -21
-9 -50 -7 -44 4 -50 6 -50 27 0 14 7 25 20 28 11 3 20 10 20 16 0 18 -44 41
-67 35 -30 -8 -36 -32 -13 -46 11 -7 20 -22 20 -34 0 -19 -7 -22 -72 -27 -98
-7 -117 11 -83 77 9 16 12 32 9 35 -4 3 -9 0 -11 -6 -7 -19 -18 -16 -52 13
-39 32 -39 44 -1 44 17 0 30 4 30 9 0 6 -16 7 -35 4 -31 -5 -35 -3 -41 23 -17
64 -10 95 28 130 46 41 104 58 193 55 38 -1 70 -3 71 -4 1 -1 -3 -46 -9 -99
l-10 -98 -30 0 c-30 0 -107 -37 -107 -52 0 -12 6 -10 42 12 34 21 94 28 83 10
-3 -6 1 -7 9 -4 9 3 16 7 16 8 0 0 7 53 14 117 15 122 40 199 89 277 25 39 31
42 70 42 23 0 52 -3 65 -6z m-286 -53 c-33 -22 -79 -56 -102 -77 -34 -31 -127
-84 -147 -84 -16 0 143 116 212 155 98 55 119 59 37 6z m-254 5 c26 -13 57
-35 70 -49 l23 -25 -31 -24 -32 -25 -51 19 c-43 17 -72 19 -182 17 -177 -4
-202 12 -87 55 159 60 221 67 290 32z m1024 -81 l-4 -20 16 20 16 20 -7 -20
c-6 -17 -5 -18 9 -7 14 11 26 8 77 -17 77 -39 89 -63 101 -193 9 -95 1 -260
-13 -274 -8 -9 -107 26 -107 37 0 6 -4 7 -10 4 -5 -3 -10 -1 -10 5 0 6 -4 8
-10 5 -12 -7 -64 19 -113 58 -39 30 -97 119 -97 148 0 9 -7 22 -15 29 -8 7
-15 27 -15 44 0 18 -4 36 -9 42 -5 5 -11 22 -13 39 -2 19 -11 34 -26 41 -20
10 -21 13 -7 24 31 26 91 39 165 37 69 -2 75 -4 72 -22z m-1431 -27 c-23 -4
-46 -10 -51 -13 -6 -3 -10 -4 -10 -1 0 3 17 14 38 25 28 15 40 16 51 8 11 -9
5 -13 -28 -19z m258 -314 c-36 -11 -49 -21 -59 -45 -8 -17 -13 -37 -13 -45 0
-7 -4 -11 -9 -8 -4 3 -1 21 7 41 8 19 15 37 15 40 0 8 65 32 85 32 11 0 -1 -7
-26 -15z m456 -34 c3 -5 1 -10 -4 -10 -6 0 -11 5 -11 10 0 6 2 10 4 10 3 0 8
-4 11 -10z m-543 -135 c2 -19 3 -35 1 -35 -9 0 -22 41 -17 54 9 23 11 20 16
-19z m618 28 c0 -5 -28 -7 -62 -5 -107 5 -117 9 -25 11 48 0 87 -2 87 -6z
m-260 -12 c-74 -6 -74 -6 55 -14 271 -16 503 -59 605 -112 38 -19 38 -19 33 9
-6 32 -64 56 -208 89 -60 14 -101 26 -90 26 28 1 212 -44 258 -64 45 -19 46
-21 61 -137 10 -84 13 -91 33 -93 29 -2 37 -10 30 -30 -12 -31 -42 -16 -64 33
-26 58 -104 159 -141 184 -42 28 -88 22 -184 -24 -92 -43 -101 -55 -72 -96 15
-21 14 -25 -13 -57 -26 -31 -33 -34 -93 -36 l-65 -3 58 -3 c52 -4 57 -6 57
-27 0 -25 15 -77 32 -113 6 -12 8 -33 6 -47 -5 -22 -2 -25 17 -20 12 3 26 -1
34 -9 9 -12 6 -18 -21 -34 -54 -32 -92 -41 -134 -34 -45 9 -84 28 -84 41 0 6
-3 9 -7 9 -36 -6 -41 8 -14 37 18 20 44 88 56 150 5 25 -1 39 -30 77 -20 26
-33 52 -30 57 3 6 52 10 111 10 57 0 104 4 104 8 0 4 -45 6 -99 4 l-99 -4 1
33 c2 32 0 33 -68 60 -109 43 -149 46 -188 16 -30 -23 -94 -119 -68 -103 6 4
11 3 11 -3 0 -6 -9 -15 -20 -21 -12 -6 -18 -16 -14 -23 4 -7 4 -9 -1 -5 -4 4
-14 3 -22 -3 -21 -18 -16 58 7 109 11 23 14 40 8 36 -7 -5 -9 4 -4 31 15 76
20 83 78 89 29 3 67 8 83 9 17 2 62 4 100 4 l70 -1 -75 -5z m335 0 c-22 -4
-46 -10 -52 -14 -8 -5 -11 -3 -8 6 4 8 23 14 53 14 l47 1 -40 -7z m233 -121
c41 -25 42 -36 0 -14 -37 19 -71 12 -179 -41 -47 -23 -69 -29 -72 -21 -3 7 22
26 59 45 110 56 142 61 192 31z m-585 -5 c79 -27 118 -45 112 -54 -2 -5 -45 4
-95 20 -120 39 -131 38 -174 -13 -20 -24 -36 -38 -36 -32 0 6 16 29 36 52 30
36 41 42 74 42 22 0 59 -7 83 -15z m590 -92 c-13 -2 -33 -2 -45 0 -13 2 -3 4
22 4 25 0 35 -2 23 -4z m-695 -47 c10 -22 7 -25 -29 -42 -22 -10 -49 -28 -59
-41 -15 -19 -19 -20 -24 -7 -13 34 -5 63 25 88 39 33 72 34 87 2z m127 -22
c94 -110 112 -137 107 -156 -4 -16 -11 -9 -34 33 -37 68 -55 89 -95 106 -18 7
-33 21 -33 29 0 14 2 15 18 3 15 -13 16 -12 3 3 -7 10 -17 16 -21 13 -5 -3
-11 -1 -15 5 -3 5 2 10 12 10 10 0 37 -21 58 -46z m564 14 c94 -65 150 -113
151 -131 0 -13 -9 -8 -32 19 -40 46 -114 94 -144 94 -12 0 -29 11 -38 25 -15
22 -15 25 -1 25 9 0 37 -15 64 -32z m-129 2 c0 -5 -6 -10 -14 -10 -8 0 -18 -4
-21 -10 -4 -7 2 -7 19 0 16 6 27 6 31 0 4 -6 -4 -10 -17 -10 -13 0 -39 -13
-59 -29 l-35 -30 -13 36 c-16 43 -4 61 29 43 17 -9 26 -8 43 4 26 18 37 20 37
6z m230 -137 c0 -10 -39 20 -75 58 l-40 43 58 -48 c31 -27 57 -50 57 -53z
m-696 26 c40 -18 94 -74 83 -86 -3 -2 -10 4 -16 15 -16 31 -67 63 -106 68 -34
4 -49 -9 -22 -19 8 -4 6 -6 -4 -6 -9 -1 -29 -11 -44 -23 -20 -15 -30 -18 -33
-10 -2 7 -8 10 -12 7 -5 -3 -6 -13 -3 -22 5 -12 2 -15 -10 -10 -9 3 -19 2 -22
-3 -4 -6 -12 -10 -18 -10 -7 0 -4 5 6 11 13 8 17 18 13 35 -8 31 15 57 68 75
21 8 41 20 44 27 3 9 9 7 19 -8 8 -11 34 -30 57 -41z m604 1 c48 -16 130 -100
99 -100 -8 0 -28 15 -43 33 -15 17 -36 38 -47 46 -23 16 -97 25 -97 11 0 -6 6
-10 13 -10 12 0 -43 -33 -75 -46 -21 -7 -23 -20 -7 -30 6 -4 52 -6 103 -5 89
2 92 1 120 -28 40 -41 26 -54 -31 -29 -35 15 -61 19 -110 16 l-64 -4 -21 38
c-24 43 -34 47 -43 19 -3 -10 -14 -21 -25 -24 -18 -4 -17 -2 5 28 22 28 24 37
15 60 -9 25 -9 26 5 15 8 -7 15 -8 15 -3 0 11 64 43 86 43 9 0 12 5 8 11 -3 6
6 3 22 -7 15 -11 48 -26 72 -34z m-518 -44 c0 -5 -13 8 -30 29 -16 21 -30 41
-30 44 1 9 59 -63 60 -73z m720 64 c0 -5 -9 -10 -20 -10 -11 0 -20 5 -20 10 0
6 9 10 20 10 11 0 20 -4 20 -10z m-1060 -24 c0 -3 -4 -8 -10 -11 -5 -3 -10 -1
-10 4 0 6 5 11 10 11 6 0 10 -2 10 -4z m250 -60 c0 -12 -5 -7 -19 24 -11 24
-11 24 3 6 9 -11 16 -24 16 -30z m595 24 c10 -11 16 -20 13 -20 -3 0 -13 9
-23 20 -10 11 -16 20 -13 20 3 0 13 -9 23 -20z m-565 -72 c25 -42 25 -51 -1
-38 -22 12 -122 9 -150 -3 -11 -6 -19 0 -28 19 -6 15 -10 29 -7 31 3 3 40 9
83 13 43 4 79 8 81 9 1 0 11 -14 22 -31z m539 -86 c38 6 53 -27 15 -35 -26 -5
-30 -2 -64 38 -21 25 -22 27 -3 11 15 -12 32 -17 52 -14z m-519 3 c0 -10 -57
-33 -97 -40 -36 -6 -43 -4 -53 15 -11 21 -10 21 60 19 38 -1 73 1 77 4 7 8 13
9 13 2z m861 -60 c-2 -5 -4 -23 -3 -40 0 -25 -2 -23 -13 15 -31 103 -31 99 -4
65 13 -16 22 -34 20 -40z m-771 2 c30 -15 65 -27 77 -27 12 0 27 -8 32 -17 9
-16 10 -16 11 -1 0 12 15 19 50 27 28 6 64 18 80 26 40 21 41 20 35 -27 -4
-32 -3 -38 4 -23 5 11 10 31 10 44 1 20 4 22 29 17 15 -4 51 -10 81 -13 l54
-6 -8 -106 c-3 -58 -8 -107 -9 -108 -7 -8 -145 69 -150 84 -6 15 -8 14 -22 -5
-13 -19 -25 -22 -79 -22 -55 0 -65 3 -70 20 -8 25 -22 26 -29 3 -5 -15 -19
-19 -77 -21 -64 -2 -71 0 -76 18 -7 25 -17 26 -29 0 -5 -11 -46 -37 -91 -59
l-82 -40 -3 120 -3 119 48 0 c26 0 64 7 84 15 42 18 50 13 56 -35 3 -28 4 -26
6 15 1 28 5 45 9 40 4 -6 32 -23 62 -38z m462 -239 c-9 -9 -15 -9 -24 1 -11
10 -10 11 5 6 10 -5 17 -2 17 6 0 7 3 9 7 6 4 -4 1 -13 -5 -19z m-433 -167
c-31 -16 -63 -32 -69 -36 -9 -6 -11 -4 -5 4 8 13 102 61 120 61 6 0 -15 -13
-46 -29z m266 -224 c3 -12 5 -54 3 -92 l-3 -70 -60 -27 c-100 -46 -109 -53
-130 -85 -24 -38 -33 -37 -56 3 -9 17 -28 43 -43 59 -33 36 -33 47 0 34 33
-12 43 -5 14 11 -13 7 -19 18 -16 28 2 9 7 48 11 85 l7 68 130 -4 c72 -2 124
0 116 4 -10 7 -9 9 4 9 10 0 20 -10 23 -23z m-371 -32 c-9 -14 -19 -23 -22
-20 -5 4 26 45 35 45 2 0 -4 -11 -13 -25z m63 -47 c6 -5 9 -16 7 -23 -4 -10
-12 -11 -31 -4 -32 12 -96 -15 -141 -60 -42 -42 -41 -52 6 -35 58 21 73 15 17
-6 -27 -11 -58 -24 -68 -30 -29 -17 -29 -8 0 36 78 118 157 164 210 122z m33
-250 c0 -10 -16 -12 -57 -8 l-58 4 55 7 c30 3 56 6 58 7 1 1 2 -4 2 -10z m-4
-70 c-4 -24 -12 -47 -18 -53 -7 -7 -8 -3 -2 15 5 14 8 37 9 53 0 15 4 27 9 27
5 0 6 -19 2 -42z m-416 7 c-7 -8 -17 -12 -23 -8 -6 4 -3 9 9 14 27 11 28 11
14 -6z m-64 -68 c-26 -26 -51 -99 -42 -124 3 -8 1 -11 -4 -8 -25 16 2 111 43
149 31 29 34 14 3 -17z m52 12 c-3 -8 -7 -3 -11 10 -4 17 -3 21 5 13 5 -5 8
-16 6 -23z m82 -70 c-7 -11 -14 -18 -17 -15 -3 3 0 12 7 21 18 21 23 19 10 -6z
m-30 -88 c0 -17 0 -17 -29 34 l-23 40 25 -30 c15 -16 26 -36 27 -44z"/>
<path d="M1048 2321 c-8 -12 -17 -19 -19 -17 -2 2 -3 -18 -3 -46 1 -28 8 -56
16 -64 20 -20 74 -35 76 -20 14 82 13 92 -10 125 -29 43 -42 48 -60 22z m42
-26 c17 -20 8 -50 -15 -50 -20 0 -31 25 -21 51 7 18 20 18 36 -1z"/>
<path d="M1472 2315 c-7 -14 -12 -48 -12 -75 0 -41 4 -52 24 -65 30 -20 55
-10 62 24 3 14 8 33 10 42 9 33 -31 99 -60 99 -7 0 -18 -11 -24 -25z m44 -29
c7 -29 -1 -46 -21 -46 -8 0 -17 5 -20 11 -11 16 4 59 20 59 8 0 17 -11 21 -24z"/>
<path d="M1500 2095 c0 -15 -2 -16 -16 -4 -15 12 -16 11 -9 -11 12 -41 23 -44
30 -10 4 17 4 34 1 37 -3 4 -6 -2 -6 -12z"/>
<path d="M1080 2041 c0 -10 39 -46 43 -40 2 2 -7 14 -20 26 -13 12 -23 19 -23
14z"/>
<path d="M1864 2249 c-3 -6 -1 -16 5 -22 8 -8 11 -5 11 11 0 24 -5 28 -16 11z"/>
<path d="M1800 1635 c7 -9 15 -13 17 -11 7 7 -7 26 -19 26 -6 0 -6 -6 2 -15z"/>
<path d="M1307 1438 c-11 -34 -13 -56 -7 -62 14 -14 19 -5 29 50 13 68 -1 76
-22 12z"/>
<path d="M848 1677 c-45 -37 -34 -48 22 -24 27 12 48 27 46 32 -5 19 -41 15
-68 -8z"/>
<path d="M1565 1690 c3 -5 8 -10 11 -10 2 0 4 5 4 10 0 6 -5 10 -11 10 -5 0
-7 -4 -4 -10z"/>
<path d="M1387 1653 c11 -31 14 -33 35 -22 19 10 19 11 -7 25 -35 18 -36 18
-28 -3z"/>
<path d="M1450 1509 c0 -5 5 -7 10 -4 6 3 10 8 10 11 0 2 -4 4 -10 4 -5 0 -10
-5 -10 -11z"/>
<path d="M1851 1479 c-18 -16 -31 -33 -28 -36 4 -3 18 8 32 25 14 17 36 33 48
35 20 4 20 4 2 6 -11 0 -36 -13 -54 -30z"/>
<path d="M1956 1496 c21 -15 22 -34 15 -238 -3 -76 -6 -95 -17 -91 -18 7 -19
-23 -1 -30 9 -4 8 -8 -3 -16 -13 -9 -13 -12 -1 -20 11 -7 10 -10 -4 -19 -10
-5 -15 -14 -11 -21 13 -20 32 11 44 74 7 33 13 124 14 201 3 146 -4 174 -40
174 -13 0 -12 -3 4 -14z"/>
<path d="M630 1071 c0 -6 4 -13 10 -16 6 -3 7 1 4 9 -7 18 -14 21 -14 7z"/>
<path d="M1966 1057 c-17 -18 -17 -20 -2 -35 15 -15 16 -15 16 3 0 17 2 18 10
5 8 -11 9 -7 4 15 -4 17 -7 30 -8 31 -1 0 -9 -8 -20 -19z"/>
<path d="M1917 1021 c-2 -10 0 -25 5 -32 8 -11 9 -11 5 1 -2 8 0 23 5 33 5 10
5 17 0 17 -6 0 -12 -9 -15 -19z"/>
<path d="M1976 995 c-11 -8 -15 -15 -9 -15 6 0 16 7 23 15 16 19 11 19 -14 0z"/>
<path d="M930 790 c8 -5 20 -10 25 -10 6 0 3 5 -5 10 -8 5 -19 10 -25 10 -5 0
-3 -5 5 -10z"/>
</g>
</svg>
