<?xml version="1.0" standalone="no"?>
<!DOCTYPE svg PUBLIC "-//W3C//DTD SVG 20010904//EN"
 "http://www.w3.org/TR/2001/REC-SVG-20010904/DTD/svg10.dtd">
<svg version="1.0" xmlns="http://www.w3.org/2000/svg"
 width="260.000000pt" height="260.000000pt" viewBox="0 0 260.000000 260.000000"
 preserveAspectRatio="xMidYMid meet">
<metadata>
Created by potrace 1.14, written by Peter Selinger 2001-2017
</metadata>
<g transform="translate(0.000000,260.000000) scale(0.100000,-0.100000)"
fill="#000000" stroke="none">
<path d="M269 2586 c-103 -28 -190 -103 -238 -205 l-26 -56 0 -1025 0 -1025
27 -57 c37 -79 98 -142 177 -181 l65 -32 285 -3 285 -3 -19 22 -20 23 37 -22
36 -23 724 3 723 3 66 32 c79 39 140 102 177 181 l27 57 0 1025 0 1025 -32 66
c-39 79 -102 140 -181 177 l-57 27 -1005 2 c-775 1 -1015 -1 -1051 -11z m1169
-442 c13 -2 20 -9 17 -14 -3 -5 0 -12 6 -16 6 -3 15 -1 19 7 11 17 78 -5 132
-44 l39 -28 -35 -40 c-41 -45 -44 -57 -16 -87 11 -12 20 -28 20 -36 0 -8 5
-18 11 -21 6 -4 8 -13 5 -21 -15 -38 29 -58 66 -30 17 13 15 56 -3 56 -5 0 -9
13 -9 29 0 17 -4 33 -10 36 -5 3 -10 20 -10 36 0 17 -6 32 -15 35 -47 18 32
54 119 54 52 0 66 -3 66 -15 0 -8 7 -15 15 -15 8 0 15 5 15 10 0 19 101 -41
119 -71 23 -38 36 -172 26 -270 -8 -78 -12 -81 -79 -51 -23 10 -57 26 -76 34
-46 20 -98 64 -121 103 -11 16 -19 24 -19 16 0 -8 18 -36 40 -62 42 -50 55
-86 20 -54 -14 13 -39 20 -78 21 -53 2 -54 2 -22 -8 72 -20 120 -47 120 -67 0
-19 -2 -19 -35 -5 -19 7 -42 14 -52 13 -10 0 6 -9 35 -20 49 -19 52 -23 52
-55 l0 -34 -42 20 c-34 16 -38 17 -19 3 63 -45 63 -46 45 -71 l-16 -23 -27 38
c-38 51 -59 69 -112 92 -62 27 -211 59 -313 67 -73 6 -86 10 -86 24 0 10 7 20
15 24 35 13 -8 53 -45 41 -24 -7 -26 -33 -5 -41 8 -4 15 -15 15 -25 0 -17 -8
-19 -64 -19 -73 0 -86 13 -61 63 19 37 19 43 1 28 -17 -14 -43 -4 -67 25 -13
15 -11 17 17 12 24 -3 31 -1 27 9 -3 8 -16 13 -31 11 -23 -3 -27 2 -35 34 -19
81 39 129 166 136 l80 5 -6 -54 c-4 -30 -7 -65 -7 -79 0 -22 -7 -28 -42 -38
-47 -13 -85 -38 -75 -48 3 -4 17 0 29 8 13 8 35 17 51 20 24 5 27 3 21 -16 -5
-19 -4 -19 11 3 11 14 21 55 26 110 11 105 22 140 65 212 36 59 39 60 122 43z
m-188 -8 c0 -2 -21 -16 -46 -31 -26 -15 -63 -42 -83 -60 -33 -30 -110 -75
-127 -75 -16 0 125 102 186 135 70 37 70 37 70 31z m-250 -38 c29 -18 55 -38
57 -44 2 -6 -8 -19 -22 -28 -25 -16 -29 -16 -77 0 -38 12 -76 15 -156 13 -158
-6 -145 24 33 71 95 25 103 25 165 -12z m-330 -66 c0 -4 -18 -13 -40 -19 -47
-12 -50 -9 -12 11 30 17 52 20 52 8z m199 -278 c-38 -11 -49 -20 -62 -51 -9
-21 -14 -27 -11 -13 9 39 32 68 56 73 51 10 60 5 17 -9z m-79 -136 c0 -16 -3
-19 -11 -11 -6 6 -8 16 -5 22 11 17 16 13 16 -11z m473 15 c-29 -2 -78 -2
-110 0 -32 2 -8 3 52 3 61 0 87 -1 58 -3z m82 -3 c-3 -5 -12 -10 -18 -10 -7 0
-6 4 3 10 19 12 23 12 15 0z m-171 -15 c144 -13 346 -42 355 -50 1 -2 -16 -9
-40 -15 -72 -20 -159 -68 -153 -85 5 -11 -9 -15 -78 -18 l-83 -3 87 -2 c48 -1
90 -6 93 -12 3 -5 -4 -23 -16 -40 -20 -26 -30 -30 -73 -32 -48 -1 -49 -2 -10
-5 41 -4 41 -4 54 -59 7 -30 17 -57 20 -59 4 -3 5 -16 2 -31 -4 -23 -2 -25 15
-20 12 4 25 1 33 -9 11 -13 5 -19 -42 -40 -47 -21 -59 -23 -93 -14 -32 9 -66
26 -94 46 -2 2 3 11 11 20 22 24 51 129 44 156 -3 12 -16 33 -29 47 l-24 25
18 37 c21 42 23 40 -66 73 -87 33 -124 32 -157 -2 -33 -36 -59 -78 -53 -85 3
-2 -6 -15 -20 -28 l-25 -23 0 29 c0 16 9 48 20 72 11 23 15 40 9 36 -8 -4 -9
4 -4 27 12 57 22 68 68 72 23 2 49 4 57 5 8 1 87 -5 174 -13z m328 -6 c49 -12
87 -23 85 -25 -2 -2 -42 4 -88 15 -46 11 -97 22 -114 24 l-30 4 29 2 c16 0 69
-8 118 -20z m156 -52 c7 -6 11 -19 9 -29 -3 -10 -2 -18 3 -18 4 0 10 -25 14
-56 7 -60 20 -94 37 -94 6 0 7 5 4 10 -3 6 -1 10 4 10 6 0 11 -7 11 -15 0 -8
-5 -15 -11 -15 -8 0 -8 -5 1 -15 10 -12 10 -15 -2 -15 -7 0 -27 28 -43 61 -16
34 -54 88 -85 120 -30 33 -54 59 -53 59 1 0 25 -9 53 -20 61 -24 60 -24 60 -5
0 8 -15 22 -32 30 -24 10 -26 13 -8 9 14 -4 31 -11 38 -17z m-545 -50 c31 -12
57 -25 57 -29 0 -11 0 -11 -87 17 -43 14 -88 23 -101 20 -12 -3 -32 -21 -45
-40 -12 -19 -26 -35 -30 -35 -12 0 8 32 44 68 38 38 60 38 162 -1z m453 17
c19 -15 19 -16 -1 -8 -34 13 -62 7 -131 -25 -70 -33 -84 -36 -84 -23 0 14 133
72 166 72 16 0 39 -7 50 -16z m-579 -119 c10 -22 9 -25 -8 -25 -10 0 -34 -14
-54 -31 l-35 -31 0 34 c0 34 18 59 50 71 27 10 35 7 47 -18z m69 17 c28 -18
124 -139 124 -156 0 -12 -11 -1 -32 30 -18 27 -47 58 -64 69 -17 11 -36 30
-41 43 -11 22 -7 27 13 14z m497 -14 c63 -45 137 -110 137 -121 -1 -7 -11 0
-23 14 -33 38 -91 79 -114 79 -11 0 -30 11 -43 25 -20 21 -21 25 -6 25 9 0 31
-10 49 -22z m-130 -15 c22 14 27 14 37 2 10 -12 10 -15 -2 -15 -9 0 -31 -11
-50 -23 l-34 -24 -12 25 c-9 19 -9 29 -1 39 10 11 14 10 24 -4 12 -16 14 -16
38 0z m208 -90 c10 -13 6 -12 -17 4 -17 12 -37 30 -45 40 -10 13 -6 12 17 -4
17 -12 37 -30 45 -40z m-558 5 c37 -18 48 -13 25 10 -7 7 -9 12 -6 12 4 0 17
-15 29 -32 16 -22 17 -28 6 -19 -22 17 -22 4 0 -23 10 -12 1 -6 -19 13 -37 34
-98 52 -98 28 0 -16 -59 -49 -72 -40 -6 3 -8 2 -5 -3 3 -6 -9 -15 -26 -22 -27
-10 -29 -9 -14 2 9 7 17 25 17 39 0 27 17 41 75 63 22 9 33 9 40 0 6 -6 27
-19 48 -28z m477 12 c20 0 73 -39 101 -73 31 -40 -5 -23 -45 21 -26 27 -41 35
-77 38 -28 2 -39 0 -30 -5 11 -7 7 -13 -17 -25 -16 -8 -38 -23 -47 -33 -17
-16 -17 -16 -10 7 7 22 6 23 -9 8 -9 -9 -16 -21 -16 -27 0 -6 -7 -11 -15 -11
-14 0 -14 3 1 25 9 13 14 30 11 37 -2 8 17 24 47 39 45 24 53 25 71 13 11 -8
27 -14 35 -14z m188 -65 l-5 -56 26 25 c36 33 65 40 85 20 14 -14 16 -36 14
-145 -2 -81 -7 -128 -13 -125 -5 2 -9 9 -8 15 2 6 -1 11 -5 11 -4 0 -9 13 -10
29 -1 16 -9 48 -17 71 -19 53 -19 59 0 34 8 -10 15 -29 15 -42 0 -13 4 -20 10
-17 16 10 12 47 -7 67 -16 18 -16 21 -1 49 25 42 3 36 -27 -9 -24 -36 -24 -38
-9 -82 12 -33 15 -68 11 -128 -8 -143 -72 -239 -202 -305 -137 -69 -500 -76
-632 -11 -70 34 -148 120 -168 187 -36 117 -28 254 22 370 19 43 37 32 27 -17
-4 -20 -3 -26 6 -21 6 4 17 -1 25 -11 12 -17 11 -22 -10 -44 -44 -48 -65 -101
-65 -166 0 -153 85 -249 266 -299 32 -9 115 -19 184 -22 187 -8 291 21 387
110 116 107 137 287 44 386 -23 25 -25 32 -15 46 9 12 20 16 39 11 l25 -7 -15
37 c-23 55 -20 94 6 94 20 0 21 -4 17 -55z m-928 -12 c-1 -5 -6 -18 -14 -31
-11 -21 -14 -22 -25 -8 -8 9 -18 16 -24 16 -5 0 -3 -8 6 -18 19 -21 22 -57 7
-67 -5 -3 -11 -45 -11 -93 -2 -95 -2 -94 -19 55 -16 136 -11 153 40 153 22 0
40 -3 40 -7z m276 -27 c21 -31 17 -35 -22 -24 -25 6 -50 6 -78 -1 -30 -7 -42
-7 -48 2 -15 24 -8 36 25 40 70 9 108 3 123 -17z m536 -14 c34 -32 26 -47 -13
-26 -20 10 -51 14 -91 13 -43 -2 -62 1 -68 12 -13 20 13 28 85 27 49 -1 65 -5
87 -26z m-545 -68 c-44 -22 -86 -25 -96 -6 -8 15 -2 17 55 17 53 0 59 -2 41
-11z m488 -1 c3 -9 -5 -13 -24 -13 -16 0 -31 6 -34 13 -3 8 5 12 24 12 16 0
31 -6 34 -12z m-326 -53 c11 0 25 -8 30 -17 10 -17 10 -17 11 0 0 9 8 17 18
17 9 1 41 9 70 19 52 18 52 18 53 -3 2 -19 2 -19 6 2 3 17 9 22 21 17 9 -4 40
-9 67 -12 l50 -5 -3 -89 c-2 -49 -6 -89 -8 -89 -19 0 -124 57 -124 68 0 17
-17 15 -24 -3 -8 -23 -111 -21 -126 3 -10 16 -10 16 -20 0 -9 -14 -24 -18 -70
-18 -53 0 -59 2 -62 23 l-4 22 -13 -25 c-7 -15 -37 -37 -74 -55 -34 -16 -65
-31 -69 -33 -5 -2 -8 43 -8 100 l0 103 43 0 c23 0 56 4 74 8 26 7 32 5 36 -10
4 -14 5 -13 6 5 l1 22 50 -25 c27 -14 58 -25 69 -25z m-490 -211 c-11 -7 -10
-9 5 -9 14 0 17 -6 14 -25 -3 -13 -1 -22 3 -19 12 7 11 -7 0 -25 -14 -22 -37
-6 -45 29 -10 54 -8 73 10 66 12 -5 14 -1 10 17 -6 22 -6 22 6 -1 9 -19 9 -25
-3 -33z m1091 41 c0 -5 -5 -10 -11 -10 -5 0 -7 5 -4 10 3 6 8 10 11 10 2 0 4
-4 4 -10z m6 -35 c-27 -11 -27 -12 -7 -18 11 -3 21 -1 21 5 0 5 5 6 10 3 6 -4
7 -13 1 -23 -10 -18 -11 -24 -11 -47 0 -22 -40 -19 -41 3 -1 9 -1 21 0 26 1 5
-3 12 -8 15 -15 10 -2 51 14 45 7 -3 16 0 20 5 3 6 12 8 18 4 7 -4 1 -11 -17
-18z m-607 -98 c-18 -15 -89 -45 -84 -36 7 11 62 38 79 39 5 0 7 -1 5 -3z
m185 -205 c3 -10 5 -44 5 -75 -2 -56 -3 -59 -38 -76 -20 -10 -48 -21 -63 -25
-15 -3 -39 -22 -54 -41 -14 -19 -30 -35 -33 -35 -4 0 -15 16 -24 35 -9 19 -20
35 -24 35 -5 0 -14 9 -21 20 -12 19 -11 20 15 15 24 -6 26 -5 12 7 -11 9 -14
26 -12 58 8 95 1 89 116 93 56 1 105 4 109 5 4 1 9 -6 12 -16z m-312 -34 c-7
-7 -12 -8 -12 -2 0 14 12 26 19 19 2 -3 -1 -11 -7 -17z m42 -24 c27 -10 20
-35 -8 -28 -26 6 -77 -16 -113 -49 -31 -27 -29 -39 5 -32 21 4 18 1 -13 -14
-57 -28 -59 -26 -26 22 57 84 110 118 155 101z m46 -214 c0 -5 -21 -9 -47 -9
l-48 2 40 7 c22 4 43 8 48 9 4 0 7 -3 7 -9z m-360 -60 c0 -5 -2 -10 -4 -10 -3
0 -8 5 -11 10 -3 6 -1 10 4 10 6 0 11 -4 11 -10z m341 -37 c-12 -20 -14 -14
-5 12 4 9 9 14 11 11 3 -2 0 -13 -6 -23z m-390 -16 c-12 -13 -25 -44 -30 -68
-8 -41 -9 -41 -10 -11 -1 35 12 67 38 93 25 25 27 12 2 -14z m112 -42 c-3 -9
-8 -14 -10 -11 -3 3 -2 9 2 15 9 16 15 13 8 -4z m-24 -79 c-3 -3 -11 5 -18 17
-13 21 -12 21 5 5 10 -10 16 -20 13 -22z"/>
<path d="M1086 1938 c-9 -12 -16 -39 -16 -59 0 -59 56 -93 81 -48 14 27 -2 88
-30 113 -18 16 -20 16 -35 -6z m41 -52 c-10 -25 -37 -19 -37 7 0 13 3 27 7 31
11 11 36 -21 30 -38z"/>
<path d="M1442 1938 c-13 -13 -16 -85 -6 -112 9 -22 51 -20 64 3 15 28 12 73
-6 99 -17 25 -34 28 -52 10z m32 -24 c10 -27 7 -44 -9 -44 -18 0 -30 24 -21
45 7 20 22 19 30 -1z"/>
<path d="M1575 1782 c13 -14 157 -73 163 -67 6 6 -78 44 -96 45 -7 0 -27 7
-45 16 -18 9 -27 12 -22 6z"/>
<path d="M1460 1751 c0 -7 -4 -9 -10 -6 -12 8 -13 -5 -1 -24 7 -11 10 -9 16 8
4 13 4 25 1 28 -3 4 -6 1 -6 -6z"/>
<path d="M1120 1696 c0 -2 8 -10 18 -17 15 -13 16 -12 3 4 -13 16 -21 21 -21
13z"/>
<path d="M1300 1194 c-9 -25 -9 -39 -2 -46 10 -10 13 -4 27 65 6 32 -13 17
-25 -19z"/>
<path d="M917 1392 c-10 -10 -17 -21 -17 -24 0 -8 69 26 70 35 0 14 -37 7 -53
-11z"/>
<path d="M1370 1377 c0 -19 16 -31 24 -18 3 5 -1 14 -9 21 -12 10 -15 10 -15
-3z"/>
<path d="M849 1133 c-13 -16 -12 -17 4 -4 16 13 21 21 13 21 -2 0 -10 -8 -17
-17z"/>
</g>
</svg>
